<svg width="20" height="20" viewBox="0 0 20 20" fill="none" xmlns="http://www.w3.org/2000/svg">
<path d="M9.99992 1.66667C8.2433 1.66658 6.55763 2.3598 5.30929 3.59566C4.06094 4.83152 3.35082 6.51014 3.33325 8.26667C3.33325 12.8333 9.20825 17.9167 9.45825 18.1333C9.6092 18.2624 9.80129 18.3334 9.99992 18.3334C10.1985 18.3334 10.3906 18.2624 10.5416 18.1333C10.8333 17.9167 16.6666 12.8333 16.6666 8.26667C16.649 6.51014 15.9389 4.83152 14.6905 3.59566C13.4422 2.3598 11.7565 1.66658 9.99992 1.66667ZM9.99992 16.375C8.60825 15.05 4.99992 11.375 4.99992 8.26667C4.99992 6.94058 5.5267 5.66881 6.46438 4.73113C7.40207 3.79345 8.67384 3.26667 9.99992 3.26667C11.326 3.26667 12.5978 3.79345 13.5355 4.73113C14.4731 5.66881 14.9999 6.94058 14.9999 8.26667C14.9999 11.35 11.3916 15.05 9.99992 16.375Z" fill="white"/>
<path d="M9.99992 5C9.42306 5 8.85915 5.17106 8.37951 5.49155C7.89986 5.81203 7.52603 6.26756 7.30527 6.80051C7.08452 7.33346 7.02676 7.9199 7.1393 8.48568C7.25184 9.05146 7.52962 9.57116 7.93753 9.97906C8.34543 10.387 8.86513 10.6648 9.43091 10.7773C9.99668 10.8898 10.5831 10.8321 11.1161 10.6113C11.649 10.3906 12.1046 10.0167 12.425 9.53708C12.7455 9.05744 12.9166 8.49353 12.9166 7.91667C12.9166 7.14312 12.6093 6.40125 12.0623 5.85427C11.5153 5.30729 10.7735 5 9.99992 5V5ZM9.99992 9.16667C9.75269 9.16667 9.51102 9.09336 9.30546 8.956C9.0999 8.81865 8.93968 8.62343 8.84507 8.39502C8.75046 8.16661 8.72571 7.91528 8.77394 7.6728C8.82217 7.43033 8.94122 7.2076 9.11604 7.03278C9.29085 6.85797 9.51358 6.73892 9.75606 6.69068C9.99853 6.64245 10.2499 6.66721 10.4783 6.76182C10.7067 6.85643 10.9019 7.01664 11.0393 7.2222C11.1766 7.42777 11.2499 7.66944 11.2499 7.91667C11.2499 8.24819 11.1182 8.56613 10.8838 8.80055C10.6494 9.03497 10.3314 9.16667 9.99992 9.16667Z" fill="white"/>
</svg>
