<svg width="20" height="20" viewBox="0 0 20 20" fill="none" xmlns="http://www.w3.org/2000/svg">
<path d="M11.6667 10L8.75 11.6667V8.33333L11.6667 10Z" fill="white" stroke="white" stroke-width="1.25" stroke-linecap="round" stroke-linejoin="round"/>
<path d="M1.66663 10.5892V9.41C1.66663 6.9975 1.66663 5.79083 2.42079 5.015C3.17579 4.23833 4.36413 4.205 6.73996 4.1375C7.86496 4.10583 9.01496 4.08333 9.99996 4.08333C10.9841 4.08333 12.1341 4.10583 13.26 4.1375C15.6358 4.205 16.8241 4.23833 17.5783 5.015C18.3333 5.79083 18.3333 6.99833 18.3333 9.41V10.5892C18.3333 13.0025 18.3333 14.2083 17.5791 14.985C16.8241 15.7608 15.6366 15.795 13.26 15.8617C12.135 15.8942 10.985 15.9167 9.99996 15.9167C8.91309 15.9134 7.82632 15.8951 6.73996 15.8617C4.36413 15.795 3.17579 15.7617 2.42079 14.985C1.66663 14.2083 1.66663 13.0017 1.66663 10.59V10.5892Z" stroke="white" stroke-width="1.25"/>
<path d="M4.61002 4.33917C6.9196 4.22417 8.71585 4.16667 9.99919 4.16667C11.2825 4.16667 13.0796 4.22417 15.3904 4.33958C15.9951 4.36976 16.5683 4.61836 17.0036 5.03922C17.4388 5.46007 17.7066 6.02458 17.7571 6.62792C17.8629 7.89208 17.9159 9.00542 17.9159 9.96833C17.9159 10.9429 17.8617 12.0717 17.7534 13.355C17.7031 13.9514 17.4405 14.51 17.0133 14.9292C16.5861 15.3484 16.0227 15.6005 15.4254 15.6396C13.45 15.7687 11.6413 15.8333 9.99919 15.8333C8.35752 15.8333 6.54919 15.7687 4.57502 15.6396C3.97796 15.6005 3.41471 15.3487 2.98756 14.9297C2.56041 14.5107 2.29768 13.9524 2.2471 13.3563C2.13752 12.0633 2.08252 10.9338 2.08252 9.96833C2.08252 9.01417 2.13627 7.90042 2.24294 6.62667C2.29364 6.02348 2.56146 5.45917 2.99671 5.03849C3.43195 4.6178 4.00504 4.36932 4.6096 4.33917H4.61002Z" stroke="white" stroke-width="1.66667" stroke-linejoin="round"/>
<path d="M8.75 8.17083V11.8358C8.74997 11.9004 8.76744 11.9637 8.80055 12.0191C8.83365 12.0745 8.88115 12.1199 8.938 12.1505C8.99485 12.1811 9.05892 12.1956 9.1234 12.1927C9.18787 12.1897 9.25034 12.1694 9.30417 12.1338L12.0529 10.3171C12.102 10.2847 12.1424 10.2407 12.1704 10.1889C12.1984 10.1372 12.2132 10.0793 12.2134 10.0205C12.2137 9.96162 12.1994 9.90363 12.1718 9.85165C12.1443 9.79966 12.1043 9.7553 12.0554 9.7225L9.30625 7.87417C9.25252 7.83806 9.18999 7.81724 9.12534 7.81393C9.06069 7.81062 8.99636 7.82495 8.93923 7.85538C8.88209 7.8858 8.8343 7.93119 8.80097 7.98668C8.76764 8.04218 8.75002 8.10568 8.75 8.17042V8.17083Z" stroke="white" stroke-width="1.42875" stroke-linejoin="round"/>
</svg>
